<svg id="icon_Social_Mail_grey" data-name="icon Social Mail grey" xmlns="http://www.w3.org/2000/svg" xmlns:xlink="http://www.w3.org/1999/xlink" viewBox="0 0 85.82 55"><defs><style>.cls-1{fill:none;}.cls-2{clip-path:url(#clip-path);}.cls-3{fill:#0063f5;}</style><clipPath id="clip-path" transform="translate(0 0)"><rect class="cls-1" width="85.82" height="55"/></clipPath></defs><title>email-icon2</title><g id="icon_home_mail" data-name="icon home mail"><path id="Clip_2-2" data-name="Clip 2-2" class="cls-1" d="M0,0H85.82V55H0Z" transform="translate(0 0)"/><g class="cls-2"><g id="icon_home_mail-2" data-name="icon home mail-2"><path id="Fill_1" data-name="Fill 1" class="cls-3" d="M79.69,55H6.13A6,6,0,0,1,0,49.21V5.79A6,6,0,0,1,6.13,0H79.69a6,6,0,0,1,6.13,5.79V49.21A6,6,0,0,1,79.69,55ZM12.26,8.68a3.12,3.12,0,0,0-2.4,1.09,2.76,2.76,0,0,0-.65,2.12,2.84,2.84,0,0,0,1.13,1.95L41,37a3.23,3.23,0,0,0,3.83,0l30.65-23.2a2.84,2.84,0,0,0,1.13-1.95A2.76,2.76,0,0,0,76,9.77a3.19,3.19,0,0,0-4.31-.45L42.91,31.06,14.17,9.32A3.14,3.14,0,0,0,12.26,8.68Z" transform="translate(0 0)"/></g></g></g></svg>