<?xml version="1.0" encoding="utf-8"?>
<!-- Generator: Adobe Illustrator 23.1.0, SVG Export Plug-In . SVG Version: 6.00 Build 0)  -->
<svg version="1.1" id="email--icon" xmlns="http://www.w3.org/2000/svg" xmlns:xlink="http://www.w3.org/1999/xlink" x="0px"
	 y="0px" viewBox="0 0 512 512" style="enable-background:new 0 0 512 512;" xml:space="preserve">
<style type="text/css">
	.st0{fill:#0063F5;}
</style>
<g>
	<path class="st0" d="M256,0C114.6,0,0,114.6,0,256s114.6,256,256,256s256-114.6,256-256S397.4,0,256,0z M372.5,124.3l-141.8,94.3
		l-122.5-71.5L372.5,124.3z M390.3,371.7v21.9l-284.4-29.6v-27.3c-4.7,4.9-8.4-0.8-8.4-0.8l9-11.4c9.5-11,29.6-33,62.7-20.5
		c9.6,3.6,22,9,36.1,15.3c46.3,20.7,108.1,48.3,161.8,48.3c3.3,0,11-0.5,18.2-1.4c8.1-1,15.1-2.3,15.1-2.3S404.5,370.7,390.3,371.7z
		 M402.6,326.7c0,0-17.4,3.7-17.5,3.7c-47.4,9.4-116.4-21.5-165.6-43.5c-14.6-6.5-27.1-12.2-37.7-16.2c-27.7-10.4-53.7-6.9-70.3,3.7
		l-19.4,13.3c0,0-7.6-5.7,13.7-20.4v-79.6L221.7,255c2.8,1.6,6.2,2.4,9.3,2.4c3.4,0,6.5-1,9.4-3l149.8-100V320
		C404.5,315.8,402.6,326.7,402.6,326.7z"/>
</g>
</svg>
