<svg id="icon_Social_Mail_grey" data-name="icon/Social/Mail/grey" xmlns="http://www.w3.org/2000/svg" xmlns:xlink="http://www.w3.org/1999/xlink" width="85.819" height="54.999" viewBox="0 0 85.819 54.999">
  <defs>
    <clipPath id="clip-path">
      <path id="Clip_2" data-name="Clip 2" d="M0,0H85.819V55H0Z" fill="none"/>
    </clipPath>
  </defs>
  <g id="icon_home_mail" data-name="icon/home/mail">
    <path id="Clip_2-2" data-name="Clip 2" d="M0,0H85.819V55H0Z" fill="none"/>
    <g id="icon_home_mail-2" data-name="icon/home/mail" clip-path="url(#clip-path)">
      <path id="Fill_1" data-name="Fill 1" d="M79.69,55H6.132A5.976,5.976,0,0,1,0,49.209V5.791A5.976,5.976,0,0,1,6.132,0H79.69a5.976,5.976,0,0,1,6.132,5.791V49.209A5.976,5.976,0,0,1,79.69,55ZM12.263,8.683a3.13,3.13,0,0,0-2.4,1.085,2.773,2.773,0,0,0-.655,2.121,2.833,2.833,0,0,0,1.132,1.949l30.65,23.2a3.215,3.215,0,0,0,3.83,0l30.655-23.2a2.834,2.834,0,0,0,1.127-1.949,2.777,2.777,0,0,0-.656-2.121,3.193,3.193,0,0,0-4.307-.451L42.908,31.064,14.174,9.317A3.178,3.178,0,0,0,12.263,8.683Z" transform="translate(0)" fill="#0063f5"/>
    </g>
  </g>
</svg>
