<svg xmlns="http://www.w3.org/2000/svg" width="67.91" height="39" viewBox="0 0 67.91 39">
  <g id="logo" transform="translate(-0.009 6.099)">
    <path id="Shape_1_copy" data-name="Shape 1 copy" d="M215.738,50.505a11.339,11.339,0,0,1-.467-6.192,4.776,4.776,0,0,1,5.328-3.849s5.24,1.636,8.158-1.584a55.629,55.629,0,0,1,4.792-3.631s3.9-3.137,7.059.53c0,0,2.392,3.2.906,13.666,0,0-.982,4.709-4.187,7.2,0,0-6.366,5.826-17.5-.837a12.994,12.994,0,0,1-4.089-5.3Z" transform="translate(-215.031 -34)" fill="#fff" fill-rule="evenodd"/>
    <text id="CL" transform="translate(32.919 22.901)" fill="#fff" font-size="28" font-family="Poppins-Bold, Poppins" font-weight="700"><tspan x="0" y="0">CL</tspan></text>
  </g>
</svg>
