<?xml version="1.0"?>
<svg xmlns="http://www.w3.org/2000/svg" xmlns:xlink="http://www.w3.org/1999/xlink" version="1.1" id="email--icon" x="0px" y="0px" viewBox="0 0 216 216" style="enable-background:new 0 0 216 216;" xml:space="preserve" width="512px" height="512px" class="">
    <g>
        <path d="M108,0C48.353,0,0,48.353,0,108s48.353,108,108,108c59.647,0,108-48.353,108-108S167.647,0,108,0z M157.154,52.456  L97.345,92.249l-51.674-30.15L157.154,52.456z M164.667,156.821v9.254l-120-12.482v-11.508c-2,2.068-3.542-0.334-3.542-0.334  l3.792-4.815c4-4.65,12.475-13.906,26.455-8.663c4.061,1.522,9.285,3.813,15.229,6.467c19.519,8.712,45.59,20.368,68.275,20.367  c1.38,0,4.639-0.219,7.661-0.586c3.405-0.413,6.361-0.979,6.361-0.979S170.667,156.405,164.667,156.821z M169.859,137.828  c0,0-7.361,1.571-7.401,1.557c-19.993,3.978-49.094-9.073-69.862-18.344c-6.168-2.754-11.425-5.131-15.913-6.814  c-11.705-4.388-22.653-2.894-29.647,1.544l-8.167,5.604c0,0-3.203-2.423,5.797-8.614V79.185l48.874,28.377  c1.17,0.684,2.63,1.022,3.934,1.022c1.45,0,2.726-0.421,3.981-1.256l63.212-42.206v69.88  C170.667,133.209,169.859,137.828,169.859,137.828z" data-original="#000000" class="active-path" data-old_color="#000000" fill="#FFFFFF"/>
    </g> 
</svg>
