<svg id="logo" xmlns="http://www.w3.org/2000/svg" width="67.969" height="25" viewBox="0 0 67.969 25">
  <defs>
    <style>
      .cls-1, .cls-2 {
        fill: #fff;
      }

      .cls-1 {
        fill-rule: evenodd;
      }

      .cls-2 {
        font-size: 28px;
        font-family: Poppins;
        font-weight: 700;
      }
    </style>
  </defs>
  <path id="Shape_1_copy" data-name="Shape 1 copy" class="cls-1" d="M215.738,50.505a11.339,11.339,0,0,1-.467-6.192,4.776,4.776,0,0,1,5.328-3.849s5.24,1.636,8.158-1.584a55.632,55.632,0,0,1,4.792-3.631s3.9-3.137,7.059.53c0,0,2.392,3.2.906,13.666,0,0-.982,4.709-4.187,7.2,0,0-6.366,5.826-17.5-.837A12.994,12.994,0,0,1,215.738,50.505Z" transform="translate(-215.031 -34)"/>
  <text id="CL" class="cls-2" x="32.919" y="22.901">CL</text>
</svg>
