<svg id="Capa_1" data-name="Capa 1" xmlns="http://www.w3.org/2000/svg" viewBox="0 0 371.98 496.32"><defs><style>.cls-1{fill:#006bc0;}.cls-2{fill:#0096dc;}.cls-3{fill:#fff;}.cls-4{fill:#222123;}</style></defs><title>css-3</title><path class="cls-1" d="M442,119.47,412.77,458.4a256.06,256.06,0,0,1-313.54,0L70,119.47Z" transform="translate(-70.01 -15.68)"/><polygon class="cls-2" points="185.99 135.66 185.99 489.62 308.26 455.1 335.54 135.66 185.99 135.66"/><polygon class="cls-3" points="294.03 274.11 205.84 274.11 297.99 227.21 301.97 180.07 70 180.07 74.06 228.13 167.18 228.13 77.84 272.81 81.99 322.05 81.99 322.05 241.37 322.05 236.14 380.69 185.99 394.27 133.74 379.64 132.44 343.07 83.77 343.07 89.86 415.17 185.99 442.34 282.12 415.17 294.03 274.1 294.03 274.11"/><polygon class="cls-4" points="95.34 51.55 95.34 18.11 143.41 18.11 143.41 0 77.93 0 77.93 69.66 143.41 69.66 143.41 51.55 95.34 51.55"/><polygon class="cls-4" points="171.53 27.25 171.53 18.89 219.34 18.89 219.34 18.11 219.34 0 153.86 0 153.86 43.19 200.79 43.19 200.79 51.55 153.86 51.55 153.86 69.66 219.34 69.66 219.34 51.55 219.34 27.25 171.53 27.25"/><polygon class="cls-4" points="246.24 27.25 246.24 18.89 294.05 18.89 294.05 18.11 294.05 0 228.57 0 228.57 43.19 275.5 43.19 275.5 51.55 228.57 51.55 228.57 69.66 294.05 69.66 294.05 51.55 294.05 27.25 246.24 27.25"/></svg>