<svg id="Capa_1" data-name="Capa 1" xmlns="http://www.w3.org/2000/svg" viewBox="0 0 500.75 242"><title>express</title><path d="M8.83,265c0-75.14,55.25-121.22,115.55-121.22,63,0,103.06,40.53,103.06,106.64a109.16,109.16,0,0,1-1.22,17.71H19.5V250H217l-9,8.6c0-65.34-34-96.55-83.36-96.55-48.1,0-93.92,37.54-93.92,102.26,0,66.77,46.35,103.08,101,103.08,31.34,0,55.87-10,77.33-24.87l8.81,16.13C196.9,372.23,171,385.76,130.4,385.76,63.81,385.76,8.83,340.64,8.83,265Z" transform="translate(-8.83 -143.76)"/><path d="M390.57,260.44,305.83,149.52h24.45l44.3,58.57c9.21,12.61,18.81,26.18,29.11,38.66h1.92c10-12.48,21-26.88,30.24-39.49l42.95-57.74h23.36l-85.7,111.83L509.58,380H485l-48.71-62.5c-10.43-13-21.69-29.15-32.82-42.59h-1.92c-11,14.27-21.29,27.84-32.29,43.07l-47.49,62H298.41Z" transform="translate(-8.83 -143.76)"/></svg>