<svg id="Capa_1" data-name="Capa 1" xmlns="http://www.w3.org/2000/svg" viewBox="0 0 370.89 495.2"><defs><style>.cls-1{fill:#e64c18;}.cls-2{fill:#f36518;}.cls-3{fill:#fff;}</style></defs><title>html-5</title><path class="cls-1" d="M442,119.47,412.77,458.4a256,256,0,0,1-312.37.89L71.11,119.47Z" transform="translate(-71.11 -16.8)"/><polygon class="cls-2" points="185.44 134.45 185.44 487.37 307.36 452.95 334.55 134.45 185.44 134.45"/><polygon class="cls-3" points="69.8 178.73 81.75 320.3 240.66 320.3 235.46 378.77 185.44 392.32 133.35 377.72 132.05 341.26 83.53 341.26 89.6 413.14 185.44 440.23 281.29 413.14 293.17 272.5 125.82 272.5 121.67 226.66 121.67 226.66 297.12 225.74 301.09 178.73 69.8 178.73"/><polygon points="80.05 0 80.05 24.32 56.82 24.32 56.82 0 35.2 0 35.2 69.72 56.82 69.72 56.82 47.02 80.05 47.02 80.05 69.72 101.67 69.72 101.67 0 80.05 0"/><polygon points="178.42 0 111.94 0 111.94 24.32 133.56 24.32 133.56 70.26 156.8 70.26 156.8 24.32 178.42 24.32 178.42 0"/><polygon points="302.18 48.1 302.18 0.54 278.94 0.54 278.94 48.1 278.94 70.26 302.18 70.26 335.69 70.26 335.69 48.1 302.18 48.1"/><polygon points="243.81 0.54 227.6 25.4 211.38 0.54 188.14 0.54 188.14 70.26 211.38 70.26 211.38 35.67 227.6 60.53 243.81 35.67 243.81 70.26 267.05 70.26 267.05 0.54 243.81 0.54"/></svg>