<svg id="Capa_1" data-name="Capa 1" xmlns="http://www.w3.org/2000/svg" viewBox="0 0 512 512"><defs><style>.cls-1{fill:#e4ba42;}.cls-2{fill:#f2f2f2;}.cls-3{fill:#3f4a43;}</style></defs><title>javascript-icon</title><path class="cls-1" d="M512,256a255.59,255.59,0,0,1-80.47,186.34,257.93,257.93,0,0,1-28,22.92,256,256,0,1,1-2.2-420,252.69,252.69,0,0,1,28.59,22.93A255.14,255.14,0,0,1,512,256Z"/><path class="cls-2" d="M391.05,233c-7.13-20.66-36.34-20.66-42-3.56s13.54,27.07,43.47,37,48.45,36.34,44.89,59.85-13.54,54.16-72.68,54.16c-37,0-57.51-23.11-67.72-40.43l33.51-20.14s11.41,24.23,32.78,24.23,29.93-7.13,29.93-23.52c0-19.95-69.12-27.07-79.81-61.28s3.57-82.65,53.44-79.09c31.18,2.23,48.71,17.54,57.48,28.7Z"/><path class="cls-2" d="M235.71,183.8V320.61c0,16.39-14.25,24.94-28.5,22.09s-20.66-19.95-20.66-19.95l-32.78,22.09s7.13,32.78,52,35.63,70.54-24.23,70.54-47V183.8Z"/><path class="cls-2" d="M74,45.21V436a254.85,254.85,0,0,0,34.53,29.27h295a257.93,257.93,0,0,0,28-22.92H96.89V68.14H471.08V394.89A254.81,254.81,0,0,0,494,350.44V45.21Z"/><circle class="cls-3" cx="87.86" cy="339.14" r="40.61" transform="translate(-18.62 5.38) rotate(-3.17)"/></svg>