<svg id="Capa_1" data-name="Capa 1" xmlns="http://www.w3.org/2000/svg" viewBox="0 0 512 512"><defs><style>.cls-1{fill:#f2f2f2;}.cls-2{fill:#3b8739;}.cls-3{fill:#333;}.cls-4{fill:#66a060;}.cls-5{fill:#6da75d;}.cls-6{fill:#55a344;}.cls-7{fill:#639d57;}</style></defs><title>nodejs-icon</title><path class="cls-1" d="M512,256c0,141.39-114.61,256-256,256C125.56,512,17.9,414.44,2,288.3a258.09,258.09,0,0,1,4.63-90.56C33,84.43,134.66,0,256,0,377,0,478.47,84,505.14,196.9a255.07,255.07,0,0,1,6.51,45.64Q512,249.23,512,256Z"/><polygon class="cls-2" points="243.19 276.56 243.19 210 185.55 176.72 127.91 210 127.91 276.56 185.55 309.84 243.19 276.56"/><path class="cls-3" d="M470.2,266.46l37.57,21.69L470.2,309.84l-57.63-33.28V210l57.63-33.28,34.94,20.18a254.94,254.94,0,0,1,6.51,45.64l-21.36,12.33V231.68L470.2,220.1l-20.08,11.58v23.19Z"/><polygon class="cls-4" points="481.39 249.74 481.39 236.82 470.2 230.36 459.01 236.82 459.01 249.74 470.2 256.2 481.39 249.74"/><path class="cls-3" d="M100.69,210v87.77L62.24,275.84v-45L43.05,219.76l-19.2,11.09v45L2,288.3a258.09,258.09,0,0,1,4.63-90.56l36.39-21Z"/><rect class="cls-5" x="152.27" y="185.63" width="66.56" height="115.28" transform="translate(-96.78 125.37) rotate(-30)"/><polygon class="cls-6" points="127.91 276.56 147.7 244.28 127.91 210 127.91 276.56"/><polygon class="cls-7" points="223.98 243.28 243.19 210 185.55 176.72 223.98 243.28"/><path class="cls-3" d="M346.55,99.58v88.3l-19.32-11.16L269.58,210v66.56l57.65,33.28,57.64-33.28V120.09Zm-.1,154.79-19.22,11.1L308,254.37V232.19l19.22-11.1,19.22,11.1Z"/><path class="cls-4" d="M282.15,358.72S281,349,270.61,349s-17.53,1.36-17.53,7.13,20.25,5.77,27.94,8,14.48,8.14,11.08,18.55-13.8,11.54-29.86,11.54-19.69-13.35-19.69-18.55h9s-1.13,8.14,9.51,9.5,20.8,2.12,22.17-6.11c1.81-10.86-34.39-5.43-37.56-16.06-2.68-9-1.13-20.82,17-22.63s28.05,6.18,28.05,18.1Z"/><path class="cls-4" d="M194.72,401.13l20,11.55a15.08,15.08,0,0,0,22.62-13.06V342.13H229.2v55.23a8.24,8.24,0,0,1-12.36,7.13l-14-8.07V337.48l51-29.46,51,29.46v58.94l-51,29.47-14.7-8.49-9.61,3.87,24.31,14,59.2-34.18V332.78l-59.2-34.18-59.2,34.18v68.35Z"/></svg>