<svg id="contact-section-bg" xmlns="http://www.w3.org/2000/svg" viewBox="0 0 1279.5 872.42"><defs><style>.cls-1{fill:#0063f5;}.cls-2{fill:#fff;}.cls-3,.cls-4{fill:none;}.cls-3{stroke:#fff;stroke-width:4px;}.cls-4{stroke:#0063f5;stroke-miterlimit:10;stroke-width:4px;}</style></defs><title>contact-section-bg</title><g id="Rectangle"><g id="Rectangleblue"><path id="Rectangle-2" class="cls-1" d="M1279.5,871.91a96.86,96.86,0,0,1-105.53-21h0L851.45,528.37a96.83,96.83,0,0,1,0-136.95h0L1174,68.9a96.86,96.86,0,0,1,104.91-21.27" transform="translate(0 -6.83)"/></g></g><g id="Ornament_Dotted_white" data-name="Ornament Dotted white"><path id="Fill_1" data-name="Fill 1" class="cls-1" d="M895.11,75.31a3.31,3.31,0,1,1-3.3-3.31h0a3.31,3.31,0,0,1,3.3,3.31" transform="translate(0 -6.83)"/><path id="Fill_3" data-name="Fill 3" class="cls-1" d="M928.17,75.31A3.31,3.31,0,1,1,924.86,72h0a3.31,3.31,0,0,1,3.31,3.31" transform="translate(0 -6.83)"/><path id="Fill_5" data-name="Fill 5" class="cls-1" d="M961.22,75.31a3.31,3.31,0,1,1-3.3-3.31h0a3.31,3.31,0,0,1,3.3,3.31" transform="translate(0 -6.83)"/><path id="Fill_7" data-name="Fill 7" class="cls-1" d="M994.28,75.31A3.31,3.31,0,1,1,991,72h0a3.31,3.31,0,0,1,3.31,3.31" transform="translate(0 -6.83)"/><path id="Fill_9" data-name="Fill 9" class="cls-1" d="M1027.33,75.31A3.31,3.31,0,1,1,1024,72h0a3.31,3.31,0,0,1,3.3,3.31" transform="translate(0 -6.83)"/><path id="Fill_11" data-name="Fill 11" class="cls-1" d="M1060.39,75.31a3.31,3.31,0,1,1-3.31-3.31h0a3.31,3.31,0,0,1,3.31,3.31" transform="translate(0 -6.83)"/><path id="Fill_13" data-name="Fill 13" class="cls-1" d="M1093.44,75.31a3.31,3.31,0,1,1-3.3-3.31h0a3.31,3.31,0,0,1,3.3,3.31" transform="translate(0 -6.83)"/><path id="Fill_15" data-name="Fill 15" class="cls-1" d="M1126.5,75.31a3.31,3.31,0,1,1-3.31-3.31h0a3.31,3.31,0,0,1,3.31,3.31" transform="translate(0 -6.83)"/><path id="Fill_17" data-name="Fill 17" class="cls-1" d="M895.11,108.36a3.31,3.31,0,1,1-3.3-3.3h0a3.3,3.3,0,0,1,3.3,3.3" transform="translate(0 -6.83)"/><path id="Fill_19" data-name="Fill 19" class="cls-1" d="M928.17,108.36a3.31,3.31,0,1,1-3.31-3.3h0a3.31,3.31,0,0,1,3.31,3.3" transform="translate(0 -6.83)"/><path id="Fill_21" data-name="Fill 21" class="cls-1" d="M961.22,108.36a3.31,3.31,0,1,1-3.3-3.3h0a3.3,3.3,0,0,1,3.3,3.3" transform="translate(0 -6.83)"/><path id="Fill_23" data-name="Fill 23" class="cls-1" d="M994.28,108.36a3.31,3.31,0,1,1-3.31-3.3h0a3.31,3.31,0,0,1,3.31,3.3" transform="translate(0 -6.83)"/><path id="Fill_25" data-name="Fill 25" class="cls-1" d="M1027.33,108.36a3.31,3.31,0,1,1-3.3-3.3h0a3.3,3.3,0,0,1,3.3,3.3" transform="translate(0 -6.83)"/><path id="Fill_27" data-name="Fill 27" class="cls-1" d="M1060.39,108.36a3.31,3.31,0,1,1-3.31-3.3h0a3.31,3.31,0,0,1,3.31,3.3" transform="translate(0 -6.83)"/><path id="Fill_29" data-name="Fill 29" class="cls-1" d="M1093.44,108.36a3.31,3.31,0,1,1-3.3-3.3h0a3.3,3.3,0,0,1,3.3,3.3" transform="translate(0 -6.83)"/><path id="Fill_31" data-name="Fill 31" class="cls-1" d="M1126.5,108.36a3.31,3.31,0,1,1-3.31-3.3h0a3.31,3.31,0,0,1,3.31,3.3" transform="translate(0 -6.83)"/><path id="Fill_33" data-name="Fill 33" class="cls-1" d="M895.11,141.42a3.31,3.31,0,1,1-3.3-3.31h0a3.31,3.31,0,0,1,3.3,3.31" transform="translate(0 -6.83)"/><path id="Fill_35" data-name="Fill 35" class="cls-1" d="M928.17,141.42a3.31,3.31,0,1,1-3.31-3.31h0a3.31,3.31,0,0,1,3.31,3.31" transform="translate(0 -6.83)"/><path id="Fill_37" data-name="Fill 37" class="cls-1" d="M961.22,141.42a3.31,3.31,0,1,1-3.3-3.31h0a3.31,3.31,0,0,1,3.3,3.31" transform="translate(0 -6.83)"/><path id="Fill_39" data-name="Fill 39" class="cls-1" d="M994.28,141.42a3.31,3.31,0,1,1-3.31-3.31h0a3.31,3.31,0,0,1,3.31,3.31" transform="translate(0 -6.83)"/><path id="Fill_41" data-name="Fill 41" class="cls-1" d="M1027.33,141.42a3.31,3.31,0,1,1-3.3-3.31h0a3.31,3.31,0,0,1,3.3,3.31" transform="translate(0 -6.83)"/><path id="Fill_43" data-name="Fill 43" class="cls-1" d="M1060.39,141.42a3.31,3.31,0,1,1-3.31-3.31h0a3.31,3.31,0,0,1,3.31,3.31" transform="translate(0 -6.83)"/><path id="Fill_45" data-name="Fill 45" class="cls-1" d="M1093.44,141.42a3.31,3.31,0,1,1-3.3-3.31h0a3.31,3.31,0,0,1,3.3,3.31" transform="translate(0 -6.83)"/><path id="Fill_47" data-name="Fill 47" class="cls-1" d="M1126.5,141.42a3.31,3.31,0,1,1-3.31-3.31h0a3.31,3.31,0,0,1,3.31,3.31" transform="translate(0 -6.83)"/><path id="Fill_49" data-name="Fill 49" class="cls-1" d="M895.11,174.47a3.31,3.31,0,1,1-3.3-3.3h0a3.3,3.3,0,0,1,3.3,3.3" transform="translate(0 -6.83)"/><path id="Fill_51" data-name="Fill 51" class="cls-1" d="M928.17,174.47a3.31,3.31,0,1,1-3.31-3.3h0a3.31,3.31,0,0,1,3.31,3.3" transform="translate(0 -6.83)"/><path id="Fill_53" data-name="Fill 53" class="cls-1" d="M961.22,174.47a3.31,3.31,0,1,1-3.3-3.3h0a3.3,3.3,0,0,1,3.3,3.3" transform="translate(0 -6.83)"/><path id="Fill_55" data-name="Fill 55" class="cls-1" d="M994.28,174.47a3.31,3.31,0,1,1-3.31-3.3h0a3.31,3.31,0,0,1,3.31,3.3" transform="translate(0 -6.83)"/><path id="Fill_57" data-name="Fill 57" class="cls-1" d="M1027.33,174.47a3.31,3.31,0,1,1-3.3-3.3h0a3.3,3.3,0,0,1,3.3,3.3" transform="translate(0 -6.83)"/><path id="Fill_59" data-name="Fill 59" class="cls-1" d="M1060.39,174.47a3.31,3.31,0,1,1-3.31-3.3h0a3.31,3.31,0,0,1,3.31,3.3" transform="translate(0 -6.83)"/><path id="Fill_61" data-name="Fill 61" class="cls-1" d="M1093.44,174.47a3.31,3.31,0,1,1-3.3-3.3h0a3.3,3.3,0,0,1,3.3,3.3" transform="translate(0 -6.83)"/><path id="Fill_63" data-name="Fill 63" class="cls-1" d="M1126.5,174.47a3.31,3.31,0,1,1-3.31-3.3h0a3.31,3.31,0,0,1,3.31,3.3" transform="translate(0 -6.83)"/><path id="Fill_65" data-name="Fill 65" class="cls-1" d="M895.11,207.53a3.31,3.31,0,1,1-3.3-3.31h0a3.31,3.31,0,0,1,3.3,3.31" transform="translate(0 -6.83)"/><path id="Fill_67" data-name="Fill 67" class="cls-1" d="M928.17,207.53a3.31,3.31,0,1,1-3.31-3.31h0a3.31,3.31,0,0,1,3.31,3.31" transform="translate(0 -6.83)"/><path id="Fill_69" data-name="Fill 69" class="cls-1" d="M961.22,207.53a3.31,3.31,0,1,1-3.3-3.31h0a3.31,3.31,0,0,1,3.3,3.31" transform="translate(0 -6.83)"/><path id="Fill_71" data-name="Fill 71" class="cls-1" d="M994.28,207.53a3.31,3.31,0,1,1-3.31-3.31h0a3.31,3.31,0,0,1,3.31,3.31" transform="translate(0 -6.83)"/><path id="Fill_73" data-name="Fill 73" class="cls-1" d="M1027.33,207.53a3.31,3.31,0,1,1-3.3-3.31h0a3.31,3.31,0,0,1,3.3,3.31" transform="translate(0 -6.83)"/><path id="Fill_75" data-name="Fill 75" class="cls-1" d="M1060.39,207.53a3.31,3.31,0,1,1-3.31-3.31h0a3.31,3.31,0,0,1,3.31,3.31" transform="translate(0 -6.83)"/><path id="Fill_77" data-name="Fill 77" class="cls-1" d="M1093.44,207.53a3.31,3.31,0,1,1-3.3-3.31h0a3.31,3.31,0,0,1,3.3,3.31" transform="translate(0 -6.83)"/><path id="Fill_79" data-name="Fill 79" class="cls-1" d="M1126.5,207.53a3.31,3.31,0,1,1-3.31-3.31h0a3.31,3.31,0,0,1,3.31,3.31" transform="translate(0 -6.83)"/><path id="Fill_81" data-name="Fill 81" class="cls-1" d="M895.11,240.58a3.31,3.31,0,1,1-3.3-3.3h0a3.3,3.3,0,0,1,3.3,3.3" transform="translate(0 -6.83)"/><path id="Fill_83" data-name="Fill 83" class="cls-1" d="M928.17,240.58a3.31,3.31,0,1,1-3.31-3.3h0a3.31,3.31,0,0,1,3.31,3.3" transform="translate(0 -6.83)"/><path id="Fill_85" data-name="Fill 85" class="cls-1" d="M961.22,240.58a3.31,3.31,0,1,1-3.3-3.3h0a3.3,3.3,0,0,1,3.3,3.3" transform="translate(0 -6.83)"/><path id="Fill_87" data-name="Fill 87" class="cls-1" d="M994.28,240.58a3.31,3.31,0,1,1-3.31-3.3h0a3.31,3.31,0,0,1,3.31,3.3" transform="translate(0 -6.83)"/><path id="Fill_89" data-name="Fill 89" class="cls-1" d="M1027.33,240.58a3.31,3.31,0,1,1-3.3-3.3h0a3.3,3.3,0,0,1,3.3,3.3" transform="translate(0 -6.83)"/><path id="Fill_91" data-name="Fill 91" class="cls-1" d="M1060.39,240.58a3.31,3.31,0,1,1-3.31-3.3h0a3.31,3.31,0,0,1,3.31,3.3" transform="translate(0 -6.83)"/><path id="Fill_93" data-name="Fill 93" class="cls-1" d="M1093.44,240.58a3.31,3.31,0,1,1-3.3-3.3h0a3.3,3.3,0,0,1,3.3,3.3" transform="translate(0 -6.83)"/><path id="Fill_95" data-name="Fill 95" class="cls-1" d="M1126.5,240.58a3.31,3.31,0,1,1-3.31-3.3h0a3.31,3.31,0,0,1,3.31,3.3" transform="translate(0 -6.83)"/><path id="Fill_97" data-name="Fill 97" class="cls-1" d="M895.11,273.64a3.31,3.31,0,1,1-3.3-3.31h0a3.31,3.31,0,0,1,3.3,3.31" transform="translate(0 -6.83)"/><path id="Fill_99" data-name="Fill 99" class="cls-1" d="M928.17,273.64a3.31,3.31,0,1,1-3.31-3.31h0a3.31,3.31,0,0,1,3.31,3.31" transform="translate(0 -6.83)"/><path id="Fill_101" data-name="Fill 101" class="cls-1" d="M961.22,273.64a3.31,3.31,0,1,1-3.3-3.31h0a3.31,3.31,0,0,1,3.3,3.31" transform="translate(0 -6.83)"/><path id="Fill_103" data-name="Fill 103" class="cls-1" d="M994.28,273.64a3.31,3.31,0,1,1-3.31-3.31h0a3.31,3.31,0,0,1,3.31,3.31" transform="translate(0 -6.83)"/><path id="Fill_105" data-name="Fill 105" class="cls-1" d="M1027.33,273.64a3.31,3.31,0,1,1-3.3-3.31h0a3.31,3.31,0,0,1,3.3,3.31" transform="translate(0 -6.83)"/><path id="Fill_107" data-name="Fill 107" class="cls-1" d="M1060.39,273.64a3.31,3.31,0,1,1-3.31-3.31h0a3.31,3.31,0,0,1,3.31,3.31" transform="translate(0 -6.83)"/><path id="Fill_109" data-name="Fill 109" class="cls-1" d="M1093.44,273.64a3.31,3.31,0,1,1-3.3-3.31h0a3.31,3.31,0,0,1,3.3,3.31" transform="translate(0 -6.83)"/><path id="Fill_111" data-name="Fill 111" class="cls-1" d="M1126.5,273.64a3.31,3.31,0,1,1-3.31-3.31h0a3.31,3.31,0,0,1,3.31,3.31" transform="translate(0 -6.83)"/><path id="Fill_113" data-name="Fill 113" class="cls-1" d="M895.11,306.7a3.31,3.31,0,1,1-3.3-3.31h0a3.31,3.31,0,0,1,3.3,3.31" transform="translate(0 -6.83)"/><path id="Fill_115" data-name="Fill 115" class="cls-1" d="M928.17,306.7a3.31,3.31,0,1,1-3.31-3.31h0a3.31,3.31,0,0,1,3.31,3.31" transform="translate(0 -6.83)"/><path id="Fill_117" data-name="Fill 117" class="cls-1" d="M961.22,306.7a3.31,3.31,0,1,1-3.3-3.31h0a3.31,3.31,0,0,1,3.3,3.31" transform="translate(0 -6.83)"/><path id="Fill_119" data-name="Fill 119" class="cls-1" d="M994.28,306.7a3.31,3.31,0,1,1-3.31-3.31h0a3.31,3.31,0,0,1,3.31,3.31" transform="translate(0 -6.83)"/><path id="Fill_121" data-name="Fill 121" class="cls-1" d="M1027.33,306.7a3.31,3.31,0,1,1-3.3-3.31h0a3.31,3.31,0,0,1,3.3,3.31" transform="translate(0 -6.83)"/><path id="Fill_123" data-name="Fill 123" class="cls-1" d="M1060.39,306.7a3.31,3.31,0,1,1-3.31-3.31h0a3.31,3.31,0,0,1,3.31,3.31" transform="translate(0 -6.83)"/><path id="Fill_125" data-name="Fill 125" class="cls-1" d="M1093.44,306.7a3.31,3.31,0,1,1-3.3-3.31h0a3.31,3.31,0,0,1,3.3,3.31" transform="translate(0 -6.83)"/><path id="Fill_127" data-name="Fill 127" class="cls-1" d="M1126.5,306.7a3.31,3.31,0,1,1-3.31-3.31h0a3.31,3.31,0,0,1,3.31,3.31" transform="translate(0 -6.83)"/></g><g id="Oval"><path id="Oval-2" class="cls-1" d="M0,34.17A262.39,262.39,0,0,1,117,6.83c145.53,0,263.5,118,263.5,263.5s-118,263.5-263.5,263.5A262.39,262.39,0,0,1,0,506.5" transform="translate(0 -6.83)"/></g><g id="Ornament_Dotted_white-2" data-name="Ornament Dotted white-2"><path id="Fill_1-2" data-name="Fill 1-2" class="cls-2" d="M85.08,19.29A3.29,3.29,0,1,1,81.79,16a3.29,3.29,0,0,1,3.29,3.29h0" transform="translate(0 -6.83)"/><path id="Fill_3-2" data-name="Fill 3-2" class="cls-2" d="M118,19.29A3.29,3.29,0,1,1,114.71,16,3.29,3.29,0,0,1,118,19.29h0" transform="translate(0 -6.83)"/><path id="Fill_5-2" data-name="Fill 5-2" class="cls-2" d="M150.92,19.29a3.3,3.3,0,1,1-3.3-3.29,3.29,3.29,0,0,1,3.3,3.29h0" transform="translate(0 -6.83)"/><path id="Fill_7-2" data-name="Fill 7-2" class="cls-2" d="M183.83,19.29A3.29,3.29,0,1,1,180.54,16a3.29,3.29,0,0,1,3.29,3.29h0" transform="translate(0 -6.83)"/><path id="Fill_9-2" data-name="Fill 9-2" class="cls-2" d="M216.75,19.29A3.29,3.29,0,1,1,213.46,16a3.29,3.29,0,0,1,3.29,3.29h0" transform="translate(0 -6.83)"/><path id="Fill_11-2" data-name="Fill 11-2" class="cls-2" d="M249.67,19.29a3.3,3.3,0,1,1-3.3-3.29,3.29,3.29,0,0,1,3.3,3.29h0" transform="translate(0 -6.83)"/><path id="Fill_13-2" data-name="Fill 13-2" class="cls-2" d="M282.58,19.29A3.29,3.29,0,1,1,279.29,16a3.29,3.29,0,0,1,3.29,3.29h0" transform="translate(0 -6.83)"/><path id="Fill_15-2" data-name="Fill 15-2" class="cls-2" d="M315.5,19.29A3.29,3.29,0,1,1,312.21,16a3.29,3.29,0,0,1,3.29,3.29h0" transform="translate(0 -6.83)"/><path id="Fill_17-2" data-name="Fill 17-2" class="cls-2" d="M85.08,52.21a3.29,3.29,0,1,1-3.29-3.29,3.29,3.29,0,0,1,3.29,3.29h0" transform="translate(0 -6.83)"/><path id="Fill_19-2" data-name="Fill 19-2" class="cls-2" d="M118,52.21a3.29,3.29,0,1,1-3.29-3.29A3.29,3.29,0,0,1,118,52.21h0" transform="translate(0 -6.83)"/><path id="Fill_21-2" data-name="Fill 21-2" class="cls-2" d="M150.92,52.21a3.3,3.3,0,1,1-3.3-3.29,3.29,3.29,0,0,1,3.3,3.29h0" transform="translate(0 -6.83)"/><path id="Fill_23-2" data-name="Fill 23-2" class="cls-2" d="M183.83,52.21a3.29,3.29,0,1,1-3.29-3.29,3.29,3.29,0,0,1,3.29,3.29h0" transform="translate(0 -6.83)"/><path id="Fill_25-2" data-name="Fill 25-2" class="cls-2" d="M216.75,52.21a3.29,3.29,0,1,1-3.29-3.29,3.29,3.29,0,0,1,3.29,3.29h0" transform="translate(0 -6.83)"/><path id="Fill_27-2" data-name="Fill 27-2" class="cls-2" d="M249.67,52.21a3.3,3.3,0,1,1-3.3-3.29,3.29,3.29,0,0,1,3.3,3.29h0" transform="translate(0 -6.83)"/><path id="Fill_29-2" data-name="Fill 29-2" class="cls-2" d="M282.58,52.21a3.29,3.29,0,1,1-3.29-3.29,3.29,3.29,0,0,1,3.29,3.29h0" transform="translate(0 -6.83)"/><path id="Fill_31-2" data-name="Fill 31-2" class="cls-2" d="M315.5,52.21a3.29,3.29,0,1,1-3.29-3.29,3.29,3.29,0,0,1,3.29,3.29h0" transform="translate(0 -6.83)"/><path id="Fill_33-2" data-name="Fill 33-2" class="cls-2" d="M85.08,85.13a3.29,3.29,0,1,1-3.29-3.3,3.29,3.29,0,0,1,3.29,3.3h0" transform="translate(0 -6.83)"/><path id="Fill_35-2" data-name="Fill 35-2" class="cls-2" d="M118,85.13a3.29,3.29,0,1,1-3.29-3.3,3.29,3.29,0,0,1,3.29,3.3h0" transform="translate(0 -6.83)"/><path id="Fill_37-2" data-name="Fill 37-2" class="cls-2" d="M150.92,85.13a3.3,3.3,0,1,1-3.3-3.3,3.3,3.3,0,0,1,3.3,3.3h0" transform="translate(0 -6.83)"/><path id="Fill_39-2" data-name="Fill 39-2" class="cls-2" d="M183.83,85.13a3.29,3.29,0,1,1-3.29-3.3,3.29,3.29,0,0,1,3.29,3.3h0" transform="translate(0 -6.83)"/><path id="Fill_41-2" data-name="Fill 41-2" class="cls-2" d="M216.75,85.13a3.29,3.29,0,1,1-3.29-3.3,3.29,3.29,0,0,1,3.29,3.3h0" transform="translate(0 -6.83)"/><path id="Fill_43-2" data-name="Fill 43-2" class="cls-2" d="M249.67,85.13a3.3,3.3,0,1,1-3.3-3.3,3.3,3.3,0,0,1,3.3,3.3h0" transform="translate(0 -6.83)"/><path id="Fill_45-2" data-name="Fill 45-2" class="cls-2" d="M282.58,85.13a3.29,3.29,0,1,1-3.29-3.3,3.29,3.29,0,0,1,3.29,3.3h0" transform="translate(0 -6.83)"/><path id="Fill_47-2" data-name="Fill 47-2" class="cls-2" d="M315.5,85.13a3.29,3.29,0,1,1-3.29-3.3,3.29,3.29,0,0,1,3.29,3.3h0" transform="translate(0 -6.83)"/><path id="Fill_49-2" data-name="Fill 49-2" class="cls-2" d="M85.08,118a3.29,3.29,0,1,1-3.29-3.29A3.29,3.29,0,0,1,85.08,118h0" transform="translate(0 -6.83)"/><path id="Fill_51-2" data-name="Fill 51-2" class="cls-2" d="M118,118a3.29,3.29,0,1,1-3.29-3.29A3.29,3.29,0,0,1,118,118h0" transform="translate(0 -6.83)"/><path id="Fill_53-2" data-name="Fill 53-2" class="cls-2" d="M150.92,118a3.3,3.3,0,1,1-3.3-3.29,3.29,3.29,0,0,1,3.3,3.29h0" transform="translate(0 -6.83)"/><path id="Fill_55-2" data-name="Fill 55-2" class="cls-2" d="M183.83,118a3.29,3.29,0,1,1-3.29-3.29,3.29,3.29,0,0,1,3.29,3.29h0" transform="translate(0 -6.83)"/><path id="Fill_57-2" data-name="Fill 57-2" class="cls-2" d="M216.75,118a3.29,3.29,0,1,1-3.29-3.29,3.29,3.29,0,0,1,3.29,3.29h0" transform="translate(0 -6.83)"/><path id="Fill_59-2" data-name="Fill 59-2" class="cls-2" d="M249.67,118a3.3,3.3,0,1,1-3.3-3.29,3.29,3.29,0,0,1,3.3,3.29h0" transform="translate(0 -6.83)"/><path id="Fill_61-2" data-name="Fill 61-2" class="cls-2" d="M282.58,118a3.29,3.29,0,1,1-3.29-3.29,3.29,3.29,0,0,1,3.29,3.29h0" transform="translate(0 -6.83)"/><path id="Fill_63-2" data-name="Fill 63-2" class="cls-2" d="M315.5,118a3.29,3.29,0,1,1-3.29-3.29A3.29,3.29,0,0,1,315.5,118h0" transform="translate(0 -6.83)"/><path id="Fill_65-2" data-name="Fill 65-2" class="cls-2" d="M85.08,151a3.29,3.29,0,1,1-3.29-3.29A3.29,3.29,0,0,1,85.08,151h0" transform="translate(0 -6.83)"/><path id="Fill_67-2" data-name="Fill 67-2" class="cls-2" d="M118,151a3.29,3.29,0,1,1-3.29-3.29A3.29,3.29,0,0,1,118,151h0" transform="translate(0 -6.83)"/><path id="Fill_69-2" data-name="Fill 69-2" class="cls-2" d="M150.92,151a3.3,3.3,0,1,1-3.3-3.29,3.29,3.29,0,0,1,3.3,3.29h0" transform="translate(0 -6.83)"/><path id="Fill_71-2" data-name="Fill 71-2" class="cls-2" d="M183.83,151a3.29,3.29,0,1,1-3.29-3.29,3.29,3.29,0,0,1,3.29,3.29h0" transform="translate(0 -6.83)"/><path id="Fill_73-2" data-name="Fill 73-2" class="cls-2" d="M216.75,151a3.29,3.29,0,1,1-3.29-3.29,3.29,3.29,0,0,1,3.29,3.29h0" transform="translate(0 -6.83)"/><path id="Fill_75-2" data-name="Fill 75-2" class="cls-2" d="M249.67,151a3.3,3.3,0,1,1-3.3-3.29,3.29,3.29,0,0,1,3.3,3.29h0" transform="translate(0 -6.83)"/><path id="Fill_77-2" data-name="Fill 77-2" class="cls-2" d="M282.58,151a3.29,3.29,0,1,1-3.29-3.29,3.29,3.29,0,0,1,3.29,3.29h0" transform="translate(0 -6.83)"/><path id="Fill_79-2" data-name="Fill 79-2" class="cls-2" d="M315.5,151a3.29,3.29,0,1,1-3.29-3.29A3.29,3.29,0,0,1,315.5,151h0" transform="translate(0 -6.83)"/><path id="Fill_81-2" data-name="Fill 81-2" class="cls-2" d="M85.08,183.87a3.29,3.29,0,1,1-3.29-3.29,3.29,3.29,0,0,1,3.29,3.29h0" transform="translate(0 -6.83)"/><path id="Fill_83-2" data-name="Fill 83-2" class="cls-2" d="M118,183.87a3.29,3.29,0,1,1-3.29-3.29,3.29,3.29,0,0,1,3.29,3.29h0" transform="translate(0 -6.83)"/><path id="Fill_85-2" data-name="Fill 85-2" class="cls-2" d="M150.92,183.87a3.3,3.3,0,1,1-3.3-3.29,3.3,3.3,0,0,1,3.3,3.29h0" transform="translate(0 -6.83)"/><path id="Fill_87-2" data-name="Fill 87-2" class="cls-2" d="M183.83,183.87a3.29,3.29,0,1,1-3.29-3.29,3.29,3.29,0,0,1,3.29,3.29h0" transform="translate(0 -6.83)"/><path id="Fill_89-2" data-name="Fill 89-2" class="cls-2" d="M216.75,183.87a3.29,3.29,0,1,1-3.29-3.29,3.29,3.29,0,0,1,3.29,3.29h0" transform="translate(0 -6.83)"/><path id="Fill_91-2" data-name="Fill 91-2" class="cls-2" d="M249.67,183.87a3.3,3.3,0,1,1-3.3-3.29,3.3,3.3,0,0,1,3.3,3.29h0" transform="translate(0 -6.83)"/><path id="Fill_93-2" data-name="Fill 93-2" class="cls-2" d="M282.58,183.87a3.29,3.29,0,1,1-3.29-3.29,3.29,3.29,0,0,1,3.29,3.29h0" transform="translate(0 -6.83)"/><path id="Fill_95-2" data-name="Fill 95-2" class="cls-2" d="M315.5,183.87a3.29,3.29,0,1,1-3.29-3.29,3.29,3.29,0,0,1,3.29,3.29h0" transform="translate(0 -6.83)"/><path id="Fill_97-2" data-name="Fill 97-2" class="cls-2" d="M85.08,216.79a3.29,3.29,0,1,1-3.29-3.29,3.29,3.29,0,0,1,3.29,3.29h0" transform="translate(0 -6.83)"/><path id="Fill_99-2" data-name="Fill 99-2" class="cls-2" d="M118,216.79a3.29,3.29,0,1,1-3.29-3.29,3.29,3.29,0,0,1,3.29,3.29h0" transform="translate(0 -6.83)"/><path id="Fill_101-2" data-name="Fill 101-2" class="cls-2" d="M150.92,216.79a3.3,3.3,0,1,1-3.3-3.29,3.29,3.29,0,0,1,3.3,3.29h0" transform="translate(0 -6.83)"/><path id="Fill_103-2" data-name="Fill 103-2" class="cls-2" d="M183.83,216.79a3.29,3.29,0,1,1-3.29-3.29,3.29,3.29,0,0,1,3.29,3.29h0" transform="translate(0 -6.83)"/><path id="Fill_105-2" data-name="Fill 105-2" class="cls-2" d="M216.75,216.79a3.29,3.29,0,1,1-3.29-3.29,3.29,3.29,0,0,1,3.29,3.29h0" transform="translate(0 -6.83)"/><path id="Fill_107-2" data-name="Fill 107-2" class="cls-2" d="M249.67,216.79a3.3,3.3,0,1,1-3.3-3.29,3.29,3.29,0,0,1,3.3,3.29h0" transform="translate(0 -6.83)"/><path id="Fill_109-2" data-name="Fill 109-2" class="cls-2" d="M282.58,216.79a3.29,3.29,0,1,1-3.29-3.29,3.29,3.29,0,0,1,3.29,3.29h0" transform="translate(0 -6.83)"/><path id="Fill_111-2" data-name="Fill 111-2" class="cls-2" d="M315.5,216.79a3.29,3.29,0,1,1-3.29-3.29,3.29,3.29,0,0,1,3.29,3.29h0" transform="translate(0 -6.83)"/><path id="Fill_113-2" data-name="Fill 113-2" class="cls-2" d="M85.08,249.71a3.29,3.29,0,1,1-3.29-3.29,3.29,3.29,0,0,1,3.29,3.29h0" transform="translate(0 -6.83)"/><path id="Fill_115-2" data-name="Fill 115-2" class="cls-2" d="M118,249.71a3.29,3.29,0,1,1-3.29-3.29,3.29,3.29,0,0,1,3.29,3.29h0" transform="translate(0 -6.83)"/><path id="Fill_117-2" data-name="Fill 117-2" class="cls-2" d="M150.92,249.71a3.3,3.3,0,1,1-3.3-3.29,3.29,3.29,0,0,1,3.3,3.29h0" transform="translate(0 -6.83)"/><path id="Fill_119-2" data-name="Fill 119-2" class="cls-2" d="M183.83,249.71a3.29,3.29,0,1,1-3.29-3.29,3.29,3.29,0,0,1,3.29,3.29h0" transform="translate(0 -6.83)"/><path id="Fill_121-2" data-name="Fill 121-2" class="cls-2" d="M216.75,249.71a3.29,3.29,0,1,1-3.29-3.29,3.29,3.29,0,0,1,3.29,3.29h0" transform="translate(0 -6.83)"/><path id="Fill_123-2" data-name="Fill 123-2" class="cls-2" d="M249.67,249.71a3.3,3.3,0,1,1-3.3-3.29,3.29,3.29,0,0,1,3.3,3.29h0" transform="translate(0 -6.83)"/><path id="Fill_125-2" data-name="Fill 125-2" class="cls-2" d="M282.58,249.71a3.29,3.29,0,1,1-3.29-3.29,3.29,3.29,0,0,1,3.29,3.29h0" transform="translate(0 -6.83)"/><path id="Fill_127-2" data-name="Fill 127-2" class="cls-2" d="M315.5,249.71a3.29,3.29,0,1,1-3.29-3.29,3.29,3.29,0,0,1,3.29,3.29h0" transform="translate(0 -6.83)"/></g><g id="Component_7_2" data-name="Component 7 2"><path id="Path_34" data-name="Path 34" class="cls-3" d="M1061.5,673a12,12,0,1,1-12,12A12,12,0,0,1,1061.5,673Z" transform="translate(0 -6.83)"/><g id="Fill_1-3" data-name="Fill 1-3"><path id="Fill_1-4" data-name="Fill 1-4" class="cls-2" d="M1115.2,591.57a8,8,0,0,1,10.63-3.87l1.69-3.63a12,12,0,1,0-10.14,21.75l1.69-3.62a8,8,0,0,1-3.87-10.63" transform="translate(0 -6.83)"/></g></g><g id="Rectangle-3"><rect id="Rectangle-4" class="cls-4" x="121.64" y="673.14" width="20" height="20" transform="translate(-444.5 286.34) rotate(-45)"/></g><g id="Fill_1-5" data-name="Fill 1-5"><path id="Fill_1-6" data-name="Fill 1-6" class="cls-1" d="M214.79,784.25A8,8,0,0,1,204.3,780l-3.68,1.57a12,12,0,0,0,22.09-9.38L219,773.76a8,8,0,0,1-4.24,10.49" transform="translate(0 -6.83)"/></g></svg>