<svg id="Ornament_Dotted_white" data-name="Ornament/Dotted/white" xmlns="http://www.w3.org/2000/svg" width="237" height="237" viewBox="0 0 237 237">
  <path id="Fill_1" data-name="Fill 1" d="M6.583,3.292A3.292,3.292,0,1,1,3.291,0,3.292,3.292,0,0,1,6.583,3.292" transform="translate(0.001)" fill="#fff"/>
  <path id="Fill_3" data-name="Fill 3" d="M6.583,3.292A3.292,3.292,0,1,1,3.291,0,3.292,3.292,0,0,1,6.583,3.292" transform="translate(32.918)" fill="#fff"/>
  <path id="Fill_5" data-name="Fill 5" d="M6.583,3.292A3.292,3.292,0,1,1,3.291,0,3.292,3.292,0,0,1,6.583,3.292" transform="translate(65.834)" fill="#fff"/>
  <path id="Fill_7" data-name="Fill 7" d="M6.583,3.292A3.292,3.292,0,1,1,3.291,0,3.292,3.292,0,0,1,6.583,3.292" transform="translate(98.751)" fill="#fff"/>
  <path id="Fill_9" data-name="Fill 9" d="M6.583,3.292A3.292,3.292,0,1,1,3.291,0,3.292,3.292,0,0,1,6.583,3.292" transform="translate(131.667)" fill="#fff"/>
  <path id="Fill_11" data-name="Fill 11" d="M6.583,3.292A3.292,3.292,0,1,1,3.291,0,3.292,3.292,0,0,1,6.583,3.292" transform="translate(164.584)" fill="#fff"/>
  <path id="Fill_13" data-name="Fill 13" d="M6.583,3.292A3.292,3.292,0,1,1,3.291,0,3.292,3.292,0,0,1,6.583,3.292" transform="translate(197.5)" fill="#fff"/>
  <path id="Fill_15" data-name="Fill 15" d="M6.583,3.292A3.292,3.292,0,1,1,3.291,0,3.292,3.292,0,0,1,6.583,3.292" transform="translate(230.417)" fill="#fff"/>
  <path id="Fill_17" data-name="Fill 17" d="M6.583,3.292A3.292,3.292,0,1,1,3.291,0,3.292,3.292,0,0,1,6.583,3.292" transform="translate(0.001 32.917)" fill="#fff"/>
  <path id="Fill_19" data-name="Fill 19" d="M6.583,3.292A3.292,3.292,0,1,1,3.291,0,3.292,3.292,0,0,1,6.583,3.292" transform="translate(32.918 32.917)" fill="#fff"/>
  <path id="Fill_21" data-name="Fill 21" d="M6.583,3.292A3.292,3.292,0,1,1,3.291,0,3.292,3.292,0,0,1,6.583,3.292" transform="translate(65.834 32.917)" fill="#fff"/>
  <path id="Fill_23" data-name="Fill 23" d="M6.583,3.292A3.292,3.292,0,1,1,3.291,0,3.292,3.292,0,0,1,6.583,3.292" transform="translate(98.751 32.917)" fill="#fff"/>
  <path id="Fill_25" data-name="Fill 25" d="M6.583,3.292A3.292,3.292,0,1,1,3.291,0,3.292,3.292,0,0,1,6.583,3.292" transform="translate(131.667 32.917)" fill="#fff"/>
  <path id="Fill_27" data-name="Fill 27" d="M6.583,3.292A3.292,3.292,0,1,1,3.291,0,3.292,3.292,0,0,1,6.583,3.292" transform="translate(164.584 32.917)" fill="#fff"/>
  <path id="Fill_29" data-name="Fill 29" d="M6.583,3.292A3.292,3.292,0,1,1,3.291,0,3.292,3.292,0,0,1,6.583,3.292" transform="translate(197.5 32.917)" fill="#fff"/>
  <path id="Fill_31" data-name="Fill 31" d="M6.583,3.292A3.292,3.292,0,1,1,3.291,0,3.292,3.292,0,0,1,6.583,3.292" transform="translate(230.417 32.917)" fill="#fff"/>
  <path id="Fill_33" data-name="Fill 33" d="M6.583,3.292A3.292,3.292,0,1,1,3.291,0,3.292,3.292,0,0,1,6.583,3.292" transform="translate(0.001 65.833)" fill="#fff"/>
  <path id="Fill_35" data-name="Fill 35" d="M6.583,3.292A3.292,3.292,0,1,1,3.291,0,3.292,3.292,0,0,1,6.583,3.292" transform="translate(32.918 65.833)" fill="#fff"/>
  <path id="Fill_37" data-name="Fill 37" d="M6.583,3.292A3.292,3.292,0,1,1,3.291,0,3.292,3.292,0,0,1,6.583,3.292" transform="translate(65.834 65.833)" fill="#fff"/>
  <path id="Fill_39" data-name="Fill 39" d="M6.583,3.292A3.292,3.292,0,1,1,3.291,0,3.292,3.292,0,0,1,6.583,3.292" transform="translate(98.751 65.833)" fill="#fff"/>
  <path id="Fill_41" data-name="Fill 41" d="M6.583,3.292A3.292,3.292,0,1,1,3.291,0,3.292,3.292,0,0,1,6.583,3.292" transform="translate(131.667 65.833)" fill="#fff"/>
  <path id="Fill_43" data-name="Fill 43" d="M6.583,3.292A3.292,3.292,0,1,1,3.291,0,3.292,3.292,0,0,1,6.583,3.292" transform="translate(164.584 65.833)" fill="#fff"/>
  <path id="Fill_45" data-name="Fill 45" d="M6.583,3.292A3.292,3.292,0,1,1,3.291,0,3.292,3.292,0,0,1,6.583,3.292" transform="translate(197.5 65.833)" fill="#fff"/>
  <path id="Fill_47" data-name="Fill 47" d="M6.583,3.292A3.292,3.292,0,1,1,3.291,0,3.292,3.292,0,0,1,6.583,3.292" transform="translate(230.417 65.833)" fill="#fff"/>
  <path id="Fill_49" data-name="Fill 49" d="M6.583,3.292A3.292,3.292,0,1,1,3.291,0,3.292,3.292,0,0,1,6.583,3.292" transform="translate(0.001 98.75)" fill="#fff"/>
  <path id="Fill_51" data-name="Fill 51" d="M6.583,3.292A3.292,3.292,0,1,1,3.291,0,3.292,3.292,0,0,1,6.583,3.292" transform="translate(32.918 98.75)" fill="#fff"/>
  <path id="Fill_53" data-name="Fill 53" d="M6.583,3.292A3.292,3.292,0,1,1,3.291,0,3.292,3.292,0,0,1,6.583,3.292" transform="translate(65.834 98.75)" fill="#fff"/>
  <path id="Fill_55" data-name="Fill 55" d="M6.583,3.292A3.292,3.292,0,1,1,3.291,0,3.292,3.292,0,0,1,6.583,3.292" transform="translate(98.751 98.75)" fill="#fff"/>
  <path id="Fill_57" data-name="Fill 57" d="M6.583,3.292A3.292,3.292,0,1,1,3.291,0,3.292,3.292,0,0,1,6.583,3.292" transform="translate(131.667 98.75)" fill="#fff"/>
  <path id="Fill_59" data-name="Fill 59" d="M6.583,3.292A3.292,3.292,0,1,1,3.291,0,3.292,3.292,0,0,1,6.583,3.292" transform="translate(164.584 98.75)" fill="#fff"/>
  <path id="Fill_61" data-name="Fill 61" d="M6.583,3.292A3.292,3.292,0,1,1,3.291,0,3.292,3.292,0,0,1,6.583,3.292" transform="translate(197.5 98.75)" fill="#fff"/>
  <path id="Fill_63" data-name="Fill 63" d="M6.583,3.292A3.292,3.292,0,1,1,3.291,0,3.292,3.292,0,0,1,6.583,3.292" transform="translate(230.417 98.75)" fill="#fff"/>
  <path id="Fill_65" data-name="Fill 65" d="M6.583,3.292A3.292,3.292,0,1,1,3.291,0,3.292,3.292,0,0,1,6.583,3.292" transform="translate(0.001 131.666)" fill="#fff"/>
  <path id="Fill_67" data-name="Fill 67" d="M6.583,3.292A3.292,3.292,0,1,1,3.291,0,3.292,3.292,0,0,1,6.583,3.292" transform="translate(32.918 131.666)" fill="#fff"/>
  <path id="Fill_69" data-name="Fill 69" d="M6.583,3.292A3.292,3.292,0,1,1,3.291,0,3.292,3.292,0,0,1,6.583,3.292" transform="translate(65.834 131.666)" fill="#fff"/>
  <path id="Fill_71" data-name="Fill 71" d="M6.583,3.292A3.292,3.292,0,1,1,3.291,0,3.292,3.292,0,0,1,6.583,3.292" transform="translate(98.751 131.666)" fill="#fff"/>
  <path id="Fill_73" data-name="Fill 73" d="M6.583,3.292A3.292,3.292,0,1,1,3.291,0,3.292,3.292,0,0,1,6.583,3.292" transform="translate(131.667 131.666)" fill="#fff"/>
  <path id="Fill_75" data-name="Fill 75" d="M6.583,3.292A3.292,3.292,0,1,1,3.291,0,3.292,3.292,0,0,1,6.583,3.292" transform="translate(164.584 131.666)" fill="#fff"/>
  <path id="Fill_77" data-name="Fill 77" d="M6.583,3.292A3.292,3.292,0,1,1,3.291,0,3.292,3.292,0,0,1,6.583,3.292" transform="translate(197.5 131.666)" fill="#fff"/>
  <path id="Fill_79" data-name="Fill 79" d="M6.583,3.292A3.292,3.292,0,1,1,3.291,0,3.292,3.292,0,0,1,6.583,3.292" transform="translate(230.417 131.666)" fill="#fff"/>
  <path id="Fill_81" data-name="Fill 81" d="M6.583,3.292A3.292,3.292,0,1,1,3.291,0,3.292,3.292,0,0,1,6.583,3.292" transform="translate(0.001 164.583)" fill="#fff"/>
  <path id="Fill_83" data-name="Fill 83" d="M6.583,3.292A3.292,3.292,0,1,1,3.291,0,3.292,3.292,0,0,1,6.583,3.292" transform="translate(32.918 164.583)" fill="#fff"/>
  <path id="Fill_85" data-name="Fill 85" d="M6.583,3.292A3.292,3.292,0,1,1,3.291,0,3.292,3.292,0,0,1,6.583,3.292" transform="translate(65.834 164.583)" fill="#fff"/>
  <path id="Fill_87" data-name="Fill 87" d="M6.583,3.292A3.292,3.292,0,1,1,3.291,0,3.292,3.292,0,0,1,6.583,3.292" transform="translate(98.751 164.583)" fill="#fff"/>
  <path id="Fill_89" data-name="Fill 89" d="M6.583,3.292A3.292,3.292,0,1,1,3.291,0,3.292,3.292,0,0,1,6.583,3.292" transform="translate(131.667 164.583)" fill="#fff"/>
  <path id="Fill_91" data-name="Fill 91" d="M6.583,3.292A3.292,3.292,0,1,1,3.291,0,3.292,3.292,0,0,1,6.583,3.292" transform="translate(164.584 164.583)" fill="#fff"/>
  <path id="Fill_93" data-name="Fill 93" d="M6.583,3.292A3.292,3.292,0,1,1,3.291,0,3.292,3.292,0,0,1,6.583,3.292" transform="translate(197.5 164.583)" fill="#fff"/>
  <path id="Fill_95" data-name="Fill 95" d="M6.583,3.292A3.292,3.292,0,1,1,3.291,0,3.292,3.292,0,0,1,6.583,3.292" transform="translate(230.417 164.583)" fill="#fff"/>
  <path id="Fill_97" data-name="Fill 97" d="M6.583,3.292A3.292,3.292,0,1,1,3.291,0,3.292,3.292,0,0,1,6.583,3.292" transform="translate(0.001 197.499)" fill="#fff"/>
  <path id="Fill_99" data-name="Fill 99" d="M6.583,3.292A3.292,3.292,0,1,1,3.291,0,3.292,3.292,0,0,1,6.583,3.292" transform="translate(32.918 197.499)" fill="#fff"/>
  <path id="Fill_101" data-name="Fill 101" d="M6.583,3.292A3.292,3.292,0,1,1,3.291,0,3.292,3.292,0,0,1,6.583,3.292" transform="translate(65.834 197.499)" fill="#fff"/>
  <path id="Fill_103" data-name="Fill 103" d="M6.583,3.292A3.292,3.292,0,1,1,3.291,0,3.292,3.292,0,0,1,6.583,3.292" transform="translate(98.751 197.499)" fill="#fff"/>
  <path id="Fill_105" data-name="Fill 105" d="M6.583,3.292A3.292,3.292,0,1,1,3.291,0,3.292,3.292,0,0,1,6.583,3.292" transform="translate(131.667 197.499)" fill="#fff"/>
  <path id="Fill_107" data-name="Fill 107" d="M6.583,3.292A3.292,3.292,0,1,1,3.291,0,3.292,3.292,0,0,1,6.583,3.292" transform="translate(164.584 197.499)" fill="#fff"/>
  <path id="Fill_109" data-name="Fill 109" d="M6.583,3.292A3.292,3.292,0,1,1,3.291,0,3.292,3.292,0,0,1,6.583,3.292" transform="translate(197.5 197.499)" fill="#fff"/>
  <path id="Fill_111" data-name="Fill 111" d="M6.583,3.292A3.292,3.292,0,1,1,3.291,0,3.292,3.292,0,0,1,6.583,3.292" transform="translate(230.417 197.499)" fill="#fff"/>
  <path id="Fill_113" data-name="Fill 113" d="M6.583,3.292A3.292,3.292,0,1,1,3.291,0,3.292,3.292,0,0,1,6.583,3.292" transform="translate(0.001 230.416)" fill="#fff"/>
  <path id="Fill_115" data-name="Fill 115" d="M6.583,3.292A3.292,3.292,0,1,1,3.291,0,3.292,3.292,0,0,1,6.583,3.292" transform="translate(32.918 230.416)" fill="#fff"/>
  <path id="Fill_117" data-name="Fill 117" d="M6.583,3.292A3.292,3.292,0,1,1,3.291,0,3.292,3.292,0,0,1,6.583,3.292" transform="translate(65.834 230.416)" fill="#fff"/>
  <path id="Fill_119" data-name="Fill 119" d="M6.583,3.292A3.292,3.292,0,1,1,3.291,0,3.292,3.292,0,0,1,6.583,3.292" transform="translate(98.751 230.416)" fill="#fff"/>
  <path id="Fill_121" data-name="Fill 121" d="M6.583,3.292A3.292,3.292,0,1,1,3.291,0,3.292,3.292,0,0,1,6.583,3.292" transform="translate(131.667 230.416)" fill="#fff"/>
  <path id="Fill_123" data-name="Fill 123" d="M6.583,3.292A3.292,3.292,0,1,1,3.291,0,3.292,3.292,0,0,1,6.583,3.292" transform="translate(164.584 230.416)" fill="#fff"/>
  <path id="Fill_125" data-name="Fill 125" d="M6.583,3.292A3.292,3.292,0,1,1,3.291,0,3.292,3.292,0,0,1,6.583,3.292" transform="translate(197.5 230.416)" fill="#fff"/>
  <path id="Fill_127" data-name="Fill 127" d="M6.583,3.292A3.292,3.292,0,1,1,3.291,0,3.292,3.292,0,0,1,6.583,3.292" transform="translate(230.417 230.416)" fill="#fff"/>
</svg>
